<svg xmlns="http://www.w3.org/2000/svg" width="620" height="148" viewBox="0 0 620 148" fill="none" font-family="JBMono,ui-monospace,SFMono-Regular,Menlo,Consolas,&apos;Liberation Mono&apos;,monospace"><style>.e-f{fill:#424a53}.m-f{fill:#656d76}.graph-fill{fill:url(#wash)}.graph-stroke{stroke:#2ea043;stroke-width:2.4;stroke-linecap:round;stroke-linejoin:round;fill:none}.endpoint{fill:#ffffff;stroke:#56d364;stroke-width:2.2}</style><defs><linearGradient id='wash' x1='0' y1='1' x2='0' y2='0'><stop offset='0%' stop-color='#238636' stop-opacity='.08'/><stop offset='70%' stop-color='#2ea043' stop-opacity='.18'/><stop offset='100%' stop-color='#56d364' stop-opacity='.42'/></linearGradient></defs><g opacity="0"><animate attributeName="opacity" values="0;1" keyTimes="0;1" calcMode="spline" keySplines="0.22 1 0.36 1" begin="0.10s" dur="0.45s" fill="freeze"/><text x="0" y="50" class="e-f" font-size="52" font-weight="600">1322</text><text x="0" y="72" class="m-f" font-size="12">contributions in the last year</text></g><g opacity="0"><animate attributeName="opacity" values="0;1" keyTimes="0;1" calcMode="spline" keySplines="0.22 1 0.36 1" begin="0.30s" dur="0.45s" fill="freeze"/><text x="620" y="30" class="e-f" font-size="19" text-anchor="end" font-weight="600">269</text><text x="620" y="47" class="m-f" font-size="11" text-anchor="end">active days</text></g><g opacity="0"><animate attributeName="opacity" values="0;1" keyTimes="0;1" calcMode="spline" keySplines="0.22 1 0.36 1" begin="0.42s" dur="0.45s" fill="freeze"/><text x="620" y="70" class="e-f" font-size="19" text-anchor="end" font-weight="600">109</text><text x="620" y="87" class="m-f" font-size="11" text-anchor="end">best week</text></g><path opacity="0" d="M0.0 138.0L0.0 113.2L11.8 108.6L23.6 112.0L35.4 112.0L47.2 107.5L59.0 116.0L70.8 108.6L82.6 111.2L94.4 110.0L106.3 112.4L118.1 108.6L129.9 90.0L141.7 114.6L153.5 117.4L165.3 115.5L177.1 111.6L188.9 106.8L200.7 112.0L212.5 113.2L224.3 110.4L236.1 107.2L247.9 115.5L259.7 131.5L271.5 130.0L283.3 127.7L295.1 116.9L306.9 114.1L318.8 131.5L330.6 123.5L342.4 127.7L354.2 124.2L366.0 114.6L377.8 122.8L389.6 114.1L401.4 109.7L413.2 127.7L425.0 123.5L436.8 114.1L448.6 113.2L460.4 118.0L472.2 119.0L484.0 121.4L495.8 119.0L507.6 121.4L519.5 130.0L531.3 111.6L543.1 121.4L554.9 103.6L566.7 119.6L578.5 130.0L590.3 122.8L602.1 109.3L613.9 130.0L613.9 138.0Z" class="graph-fill"><animate attributeName="opacity" values="0;1" keyTimes="0;1" calcMode="spline" keySplines="0.4 0 0.2 1" begin="1.57s" dur="0.75s" fill="freeze"/></path><path d="M0.0 113.2L11.8 108.6L23.6 112.0L35.4 112.0L47.2 107.5L59.0 116.0L70.8 108.6L82.6 111.2L94.4 110.0L106.3 112.4L118.1 108.6L129.9 90.0L141.7 114.6L153.5 117.4L165.3 115.5L177.1 111.6L188.9 106.8L200.7 112.0L212.5 113.2L224.3 110.4L236.1 107.2L247.9 115.5L259.7 131.5L271.5 130.0L283.3 127.7L295.1 116.9L306.9 114.1L318.8 131.5L330.6 123.5L342.4 127.7L354.2 124.2L366.0 114.6L377.8 122.8L389.6 114.1L401.4 109.7L413.2 127.7L425.0 123.5L436.8 114.1L448.6 113.2L460.4 118.0L472.2 119.0L484.0 121.4L495.8 119.0L507.6 121.4L519.5 130.0L531.3 111.6L543.1 121.4L554.9 103.6L566.7 119.6L578.5 130.0L590.3 122.8L602.1 109.3L613.9 130.0" class="graph-stroke" pathLength="1000" stroke-dasharray="1000" stroke-dashoffset="1000"><animate attributeName="stroke-dashoffset" values="1000;0" keyTimes="0;1" calcMode="spline" keySplines="0.22 1 0.36 1" begin="0.45s" dur="1.3s" fill="freeze"/></path><circle cx="613.9" cy="130.0" r="0" class="endpoint" opacity="0"><animate attributeName="opacity" values="0;1" keyTimes="0;1" calcMode="spline" keySplines="0.22 1 0.36 1" begin="1.75s" dur="0.24s" fill="freeze"/><animate attributeName="r" values="0;5.90;5" keyTimes="0;0.6;1" calcMode="spline" keySplines="0.22 1 0.36 1;0.4 0 0.2 1" begin="1.75s" dur="0.42s" fill="freeze"/></circle></svg>